<?xml version="1.0" encoding="UTF-8" standalone="no"?>
<!-- Created with Inkscape (http://www.inkscape.org/) -->

<svg
   xmlns:dc="http://purl.org/dc/elements/1.1/"
   xmlns:cc="http://creativecommons.org/ns#"
   xmlns:rdf="http://www.w3.org/1999/02/22-rdf-syntax-ns#"
   xmlns:svg="http://www.w3.org/2000/svg"
   xmlns="http://www.w3.org/2000/svg"
   xmlns:sodipodi="http://sodipodi.sourceforge.net/DTD/sodipodi-0.dtd"
   xmlns:inkscape="http://www.inkscape.org/namespaces/inkscape"
   width="210mm"
   height="297mm"
   viewBox="0 0 210 297"
   version="1.1"
   id="svg8"
   inkscape:version="0.92.3 (2405546, 2018-03-11)"
   sodipodi:docname="klatka.svg">
  <defs
     id="defs2" />
  <sodipodi:namedview
     id="base"
     pagecolor="#ffffff"
     bordercolor="#666666"
     borderopacity="1.0"
     inkscape:pageopacity="0.0"
     inkscape:pageshadow="2"
     inkscape:zoom="0.49497475"
     inkscape:cx="143.64843"
     inkscape:cy="582.7551"
     inkscape:document-units="mm"
     inkscape:current-layer="layer1"
     showgrid="false"
     inkscape:snap-global="false"
     inkscape:window-width="1366"
     inkscape:window-height="699"
     inkscape:window-x="0"
     inkscape:window-y="40"
     inkscape:window-maximized="1" />
  <metadata
     id="metadata5">
    <rdf:RDF>
      <cc:Work
         rdf:about="">
        <dc:format>image/svg+xml</dc:format>
        <dc:type
           rdf:resource="http://purl.org/dc/dcmitype/StillImage" />
        <dc:title></dc:title>
      </cc:Work>
    </rdf:RDF>
  </metadata>
  <g
     inkscape:label="Layer 1"
     inkscape:groupmode="layer"
     id="layer1">
    <path
       style="opacity:1;fill:#555753;fill-opacity:1;stroke:#000000;stroke-width:7.47800016;stroke-linecap:round;stroke-linejoin:bevel;stroke-miterlimit:4;stroke-dasharray:none;stroke-dashoffset:0;stroke-opacity:1;paint-order:stroke fill markers"
       d="m 78.775756,122.54981 c -11.7261,-0.0737 -19.446589,9.56717 -21.166666,21.16667 l -14.741218,99.40788 c -1.720078,11.5995 9.440333,21.16667 21.166666,21.16667 h 85.422692 c 11.72633,0 22.41277,-9.50673 21.16667,-21.16667 L 160.04056,144.09475 C 158.79446,132.43481 150.6,123.00183 138.8739,122.92808 Z m -8.340574,9.31054 c 0.190458,-0.008 0.38146,0.013 0.572058,0.063 l 15.629536,4.10052 c 3.049561,0.80007 4.075072,8.86905 3.345531,18.02423 l -6.251813,78.4598 c -0.729541,9.15515 -4.595111,15.78681 -7.637261,14.92932 l -22.16092,-6.24664 c -3.04214,-0.8575 -4.850702,-9.03944 -3.345532,-18.02474 L 63.370495,146.8522 c 1.411089,-8.42371 4.207819,-14.87736 7.064687,-14.99185 z m 75.356118,0.37776 c 2.85687,0.11449 5.6536,6.56813 7.06469,14.99184 l 12.78371,76.31369 c 1.50517,8.9853 -0.30339,17.16724 -3.34553,18.02474 l -22.16092,6.24665 c -3.04215,0.85749 -6.9072,-5.77366 -7.63674,-14.9288 l -6.25233,-78.45982 c -0.72954,-9.15516 0.29597,-17.22466 3.34553,-18.02473 l 15.62953,-4.10053 c 0.1906,-0.05 0.38161,-0.0707 0.57206,-0.063 z m -46.262805,12.93668 c 0.08784,-0.002 0.176599,0.003 0.26665,0.015 l 14.769125,1.99264 c 2.88168,0.38877 5.04077,8.08551 5.77742,17.05839 l 6.31331,76.89712 c 0.73667,8.97287 -1.74906,15.89613 -4.63279,15.45073 l -21.00698,-3.24476 c -2.883727,-0.44542 -5.769146,-8.15178 -5.777946,-17.05839 l -0.07493,-75.64551 c -0.0086,-8.62827 1.643034,-15.40367 4.366141,-15.4652 z"
       id="rect10"
       inkscape:connector-curvature="0"
       inkscape:export-filename="/home/jeremi360/DevProjects/Godot/Platfromer-2D-Demo/03-klatka-pl/sprites/klatka/cage.png"
       inkscape:export-xdpi="96"
       inkscape:export-ydpi="96" />
    <path
       style="opacity:1;fill:#555753;fill-opacity:1;stroke:#000000;stroke-width:7.47800016;stroke-linecap:round;stroke-linejoin:bevel;stroke-miterlimit:4;stroke-dasharray:none;stroke-dashoffset:0;stroke-opacity:1;paint-order:stroke fill markers"
       d="m 32.606668,37.748327 v 62.00655 h 40.090576 v -62.00655 z m 5.880261,6.949448 H 65.748315 V 92.271614 H 38.486929 Z"
       id="rect4532"
       inkscape:connector-curvature="0"
       inkscape:export-filename="/home/jeremi360/DevProjects/Godot/Platfromer-2D-Demo/03-klatka-pl/sprites/klatka/chain01.png"
       inkscape:export-xdpi="96"
       inkscape:export-ydpi="96" />
    <rect
       style="opacity:1;fill:#555753;fill-opacity:1;stroke:#000000;stroke-width:7.47800016;stroke-linecap:round;stroke-linejoin:bevel;stroke-miterlimit:4;stroke-dasharray:none;stroke-dashoffset:0;stroke-opacity:1;paint-order:stroke fill markers"
       id="rect4537"
       width="15.501633"
       height="65.748306"
       x="101.02789"
       y="36.679478"
       ry="1.1368696e-13"
       inkscape:export-filename="/home/jeremi360/DevProjects/Godot/Platfromer-2D-Demo/03-klatka-pl/sprites/klatka/chain00.png"
       inkscape:export-xdpi="96"
       inkscape:export-ydpi="96" />
  </g>
</svg>
